<svg xmlns="http://www.w3.org/2000/svg" version="1.1"  width="512" height="512" x="0" y="0" viewBox="0 0 512 512" style="enable-background:new 0 0 512 512" xml:space="preserve" class=""><g><g xmlns="http://www.w3.org/2000/svg"><path d="m256 258.759-15 20v189.527c0 13.583 5.396 26.609 15 36.213 9.604-9.604 15-22.631 15-36.213v-189.527z" fill="#acd5df" data-original="#acd5df"></path><path d="m241 219.5v59.259c4.935.487 9.938.741 15 .741s10.065-.254 15-.741v-59.259z" fill="#93b7c0" data-original="#93b7c0"></path><path d="m256 7.5v242c66.826 0 121-54.174 121-121s-54.174-121-121-121z" fill="#7173be" data-original="#cc3245" class=""></path><path d="m347 128.5c0-66.826-40.742-121-91-121-66.826 0-121 54.174-121 121s54.174 121 121 121c50.258 0 91-54.174 91-121z" fill="#a89df7" data-original="#ff3e3a" class=""></path><path d="m384.5 128.5c0-70.855-57.645-128.5-128.5-128.5-28.879 0-56.163 9.363-78.903 27.076-3.268 2.546-3.853 7.258-1.308 10.526 2.546 3.266 7.257 3.852 10.526 1.308 20.081-15.642 44.177-23.91 69.685-23.91 62.584 0 113.5 50.916 113.5 113.5s-50.916 113.5-113.5 113.5-113.5-50.916-113.5-113.5c0-25.508 8.268-49.604 23.91-69.685 2.545-3.269 1.96-7.98-1.308-10.526-3.268-2.544-7.98-1.958-10.526 1.308-17.713 22.74-27.076 50.024-27.076 78.903 0 63.181 45.835 115.856 106 126.525v213.262c0 15.683 6.107 30.427 17.196 41.517 1.465 1.464 3.385 2.196 5.304 2.196s3.839-.732 5.304-2.196c11.089-11.09 17.196-25.834 17.196-41.517v-213.262c60.165-10.669 106-63.344 106-126.525zm-121 339.787c0 8.867-2.622 17.331-7.5 24.506-4.878-7.175-7.5-15.639-7.5-24.506v-211.512c2.483.144 4.982.225 7.5.225s5.017-.081 7.5-.225z" fill="#000000" data-original="#000000" class=""></path></g></g></svg>